<svg id="Layer_1" data-name="Layer 1" xmlns="http://www.w3.org/2000/svg" xmlns:xlink="http://www.w3.org/1999/xlink" viewBox="0 0 1080 1080"><defs><style>.cls-1{fill:#fff;}.cls-2{fill:url(#Degradado_sin_nombre_3);}.cls-3{fill:url(#Degradado_sin_nombre_3-2);}.cls-4{fill:url(#Degradado_sin_nombre_3-3);}.cls-5{fill:url(#Degradado_sin_nombre_3-4);}.cls-6{fill:url(#Degradado_sin_nombre_3-5);}</style><linearGradient id="Degradado_sin_nombre_3" x1="225.65" y1="350.21" x2="225.65" y2="760.06" gradientUnits="userSpaceOnUse"><stop offset="0.02" stop-color="#1ea8e1"/><stop offset="1" stop-color="#2654a5"/></linearGradient><linearGradient id="Degradado_sin_nombre_3-2" x1="223.04" y1="350.21" x2="223.04" y2="760.06" xlink:href="#Degradado_sin_nombre_3"/><linearGradient id="Degradado_sin_nombre_3-3" x1="70.56" y1="350.21" x2="70.56" y2="760.06" xlink:href="#Degradado_sin_nombre_3"/><linearGradient id="Degradado_sin_nombre_3-4" x1="224.26" y1="350.21" x2="224.26" y2="760.06" xlink:href="#Degradado_sin_nombre_3"/><linearGradient id="Degradado_sin_nombre_3-5" x1="377.97" y1="350.21" x2="377.97" y2="760.06" xlink:href="#Degradado_sin_nombre_3"/></defs><path class="cls-1" d="M432.15,447.33V423.39H592.08v23.94H500v92.41H476.21V447.33Zm79.31,20.36H592.2v23.94H535.52V515.8h61v23.94h-85Z"/><path class="cls-1" d="M604.65,481.51a58.41,58.41,0,0,1,4.74-23.46,61.18,61.18,0,0,1,12.86-19.12,60.15,60.15,0,0,1,19.08-12.86,61,61,0,0,1,49.18,1,60.6,60.6,0,0,1,20.12,15.5L690.39,455.9a36.58,36.58,0,0,0-11.55-7.8,36.74,36.74,0,0,0-28.23.06A36,36,0,0,0,639.06,456a37.45,37.45,0,0,0-7.74,11.53,35.14,35.14,0,0,0-2.86,14.09,35.61,35.61,0,0,0,2.86,14.15A35.87,35.87,0,0,0,650.61,515a35.71,35.71,0,0,0,14.18,2.85,35.32,35.32,0,0,0,14.05-2.8,36.41,36.41,0,0,0,11.55-7.8l20.24,13.46a60.5,60.5,0,0,1-20.12,15.42,61.14,61.14,0,0,1-49.18.95,59.34,59.34,0,0,1-19.08-12.92A62,62,0,0,1,609.39,505,58.48,58.48,0,0,1,604.65,481.51Zm47-24.3a27.45,27.45,0,0,1,12.5-3.33,36.07,36.07,0,0,1,5.9.47,26.4,26.4,0,0,1,5.65,1.67v11.67h56.57v-44.3h23.82V539.74H732.31V491.63H675.74v15.48a27.19,27.19,0,0,1-10.83,2.14A27.84,27.84,0,0,1,651.69,506Z"/><path class="cls-1" d="M453.54,634.34A34.65,34.65,0,0,1,435.15,616a33.43,33.43,0,0,1-2.77-13.46v-1a33.44,33.44,0,0,1,2.72-13.47,34.58,34.58,0,0,1,18.32-18.39A33.44,33.44,0,0,1,466.89,567h.35l.05,24a10.29,10.29,0,0,0-4.29.91,11.3,11.3,0,0,0-5.89,5.94,10.73,10.73,0,0,0-.89,4.31,11.16,11.16,0,0,0,.84,4.26,10.73,10.73,0,0,0,2.34,3.47,11.33,11.33,0,0,0,3.46,2.39,10,10,0,0,0,4.23.89h8.82l-.08-46.5,23.84,0,.08,46.49,39.82-.07-.09-46.49,23.85-.05.08,46.49,10.64,0a33.21,33.21,0,0,1,13.45,2.72,36.18,36.18,0,0,1,11,7.35,34.09,34.09,0,0,1,10.14,24.38v.95a34.07,34.07,0,0,1-10.08,24.42,36.46,36.46,0,0,1-11,7.4,33.34,33.34,0,0,1-13.43,2.76h-.36l0-24a11.27,11.27,0,0,0,4.29-.84,10.59,10.59,0,0,0,3.51-2.34,11.66,11.66,0,0,0,2.38-3.46,10.32,10.32,0,0,0,.88-4.35,10.44,10.44,0,0,0-.9-4.29,12.15,12.15,0,0,0-2.39-3.57,10.29,10.29,0,0,0-3.52-2.38,11.07,11.07,0,0,0-4.29-.82H563.46l.08,46-23.84,0-.09-46L499.8,637l.08,46-23.84,0L476,637H467A33.48,33.48,0,0,1,453.54,634.34Z"/><path class="cls-1" d="M610.87,682.8q.35-.94,2.31-6.26t5-13.42q3.09-8.11,6.88-18.25t7.77-20.64q4-10.5,7.77-20.58t6.88-18.13q3.09-8.06,5-13.24t2.32-6l22.53,0,44.92,116.38-25.63,0-13.3-34.31-34,.07L636.5,682.75Zm55.4-78.9-7.83,20.52,15.74,0Z"/><path class="cls-1" d="M732.44,542.51l88.61,85.66,88.05-86,.26,139.71-23.84,0-.15-83.09-29.63,28.79L876.82,682l-25.63,0-14-36.1-16.06,15.65-16.48-15.83q-2.73,7.17-5.16,13.6t-4.33,11.58q-1.07,3-2.14,5.78t-2,5.43l-25.63,0q.24-.72,2-5.25T771.77,665q2.72-7.34,6.34-16.94t7.77-20.58l-29.5-28.44.16,83.09-23.84.05Zm65.19,54.35q3.55-9.78,7-19t6.47-17.18q3-7.93,5.45-14.26t3.86-10.26l23.84,61.71L825.56,616l-4.8-12.74c-1.5,4-2.59,7-3.26,8.7a30.76,30.76,0,0,1-1.24,3Z"/><path class="cls-1" d="M944.19,565.72l63.93,78.08-.15-78.2,23.84-.05L1032,682l-23.73,0-64-78.44.15,78.56-23.84.05-.22-116.47Z"/><path class="cls-2" d="M173.69,508.81H277.6V392.58H173.69Zm84-19.91H233V412.49h24.69ZM193.6,412.49h19.49V488.9H193.6Z"/><rect class="cls-3" x="213.09" y="666.39" width="19.91" height="98.37"/><path class="cls-4" d="M75.36,590.09V514.24a11,11,0,0,0,0-20.21V479.48h-9.6v14.89a11,11,0,0,0,0,19.53v76.19a22.34,22.34,0,0,0-17.5,21.77v32.87a22.3,22.3,0,0,0,44.6,0V611.86a22.27,22.27,0,0,0-17.5-21.77Zm-7.07-86a2.61,2.61,0,0,1,1-2,2.67,2.67,0,0,1,1.63-.58,2.3,2.3,0,0,1,.95.19,2.6,2.6,0,0,1,0,4.85,2.3,2.3,0,0,1-.95.19,2.67,2.67,0,0,1-1.63-.58A2.59,2.59,0,0,1,68.29,504.14Zm-10.43,129h25.4v11.64a12.7,12.7,0,0,1-25.4,0Zm25.4-9.6H57.86V611.86a12.7,12.7,0,0,1,21.68-9,12.58,12.58,0,0,1,3.72,9Z"/><path class="cls-5" d="M363.14,461.92v-19.6H389V422.41H363.14V392L223,339.25l-137.61,53v27.82H59.55V440H85.39v19.59H48v19.91H85.39v48.27h23.52v64.89h23.53v92.08h19.9V592.64h40.59v21H172V730.48h19.91v-97h67.47V725.6h19.91v-112H255.6v-21h40.58v92.08h19.91V592.64h23.52V527.75h23.53V481.82h37.41v-19.9Zm-19.91,45.92H316.09V430H296.18v97.72h23.53v45H255.6V555.12l44.4.13.06-19.91-64.37-.18v78.45H212.83V535.16l-64.36.18.06,19.91,44.4-.13v17.61H128.82v-45h23.52V430h-19.9v77.81H105.3V405.92l117.78-45.37,120.15,45.21Z"/><path class="cls-6" d="M382.77,592.43V516.24a11,11,0,0,0,0-19.53V481.83h-9.6v14.54a11,11,0,0,0,0,20.21v75.85a22.27,22.27,0,0,0-17.5,21.77v32.88a22.3,22.3,0,0,0,44.59,0V614.2A22.33,22.33,0,0,0,382.77,592.43ZM375,506.48a2.62,2.62,0,0,1,1.66-2.43,2.51,2.51,0,0,1,.95-.18,2.61,2.61,0,0,1,0,5.22,2.34,2.34,0,0,1-.95-.19A2.59,2.59,0,0,1,375,506.48Zm-9.75,129h25.39v11.64a12.7,12.7,0,0,1-25.39,0Zm25.39-9.6H365.27V614.2a12.7,12.7,0,1,1,25.39,0Z"/></svg>